# This file uses centimeters as units for non-parametric coordinates.

mtllib Door1.mtl
g default
v 7.468940 -0.188602 6.997903
v 7.365597 -0.188602 0.043997
v 7.468940 13.927317 6.997903
v 7.365597 13.927317 0.043997
v 6.897653 13.927317 7.006393
v 6.794309 13.927317 0.052487
v 6.897653 -0.188602 7.006393
v 6.794309 -0.188602 0.052487
vt 0.172548 0.041240
vt 0.294343 0.041240
vt 0.172548 0.163034
vt 0.294343 0.163034
vt 0.172548 0.284829
vt 0.294343 0.284829
vt 0.172548 0.406624
vt 0.294343 0.406624
vt 0.172548 0.528419
vt 0.294343 0.528419
vt 0.416138 0.041240
vt 0.416138 0.163034
vt 0.050753 0.041240
vt 0.050753 0.163034
vn 0.999890 0.000000 -0.014860
vn 0.999890 0.000000 -0.014860
vn 0.999890 0.000000 -0.014860
vn 0.999890 0.000000 -0.014860
vn 0.000000 1.000000 0.000000
vn 0.000000 1.000000 0.000000
vn 0.000000 1.000000 0.000000
vn 0.000000 1.000000 0.000000
vn -0.999890 0.000000 0.014860
vn -0.999890 0.000000 0.014860
vn -0.999890 0.000000 0.014860
vn -0.999890 0.000000 0.014860
vn 0.000000 -1.000000 0.000000
vn 0.000000 -1.000000 0.000000
vn 0.000000 -1.000000 0.000000
vn 0.000000 -1.000000 0.000000
vn -0.014860 0.000000 -0.999890
vn -0.014860 0.000000 -0.999890
vn -0.014860 0.000000 -0.999890
vn -0.014860 0.000000 -0.999890
vn 0.014860 0.000000 0.999890
vn 0.014860 0.000000 0.999890
vn 0.014860 0.000000 0.999890
vn 0.014860 0.000000 0.999890
s off
g pCube2
usemtl initialShadingGroup
f 1/1/1 2/2/2 4/4/3 3/3/4
f 3/3/5 4/4/6 6/6/7 5/5/8
f 5/5/9 6/6/10 8/8/11 7/7/12
f 7/7/13 8/8/14 2/10/15 1/9/16
f 2/2/17 8/11/18 6/12/19 4/4/20
f 7/13/21 1/1/22 3/3/23 5/14/24
