# This file uses centimeters as units for non-parametric coordinates.

mtllib meltdownasset4.mtl
g default
v -2.315002 -0.185604 11.992576
v 2.315002 -0.185604 11.992576
v -2.315002 0.219358 11.859400
v 2.315002 0.219358 11.859400
v -2.315002 0.185604 11.756761
v 2.315002 0.185604 11.756761
v -2.315002 -0.219358 11.889936
v 2.315002 -0.219358 11.889936
v 2.656210 0.863055 10.926007
v 2.259507 1.641628 10.926007
v 1.641628 2.259507 10.926007
v 0.863055 2.656210 10.926007
v 0.000000 2.792904 10.926007
v -0.863055 2.656210 10.926007
v -1.641628 2.259507 10.926007
v -2.259507 1.641628 10.926007
v -2.656209 0.863055 10.926007
v -2.792904 -0.000000 10.926007
v -2.656209 -0.863055 10.926007
v -2.259506 -1.641627 10.926007
v -1.641627 -2.259506 10.926007
v -0.863055 -2.656209 10.926007
v -0.000000 -2.792903 10.926007
v 0.863054 -2.656209 10.926007
v 1.641627 -2.259506 10.926007
v 2.259506 -1.641627 10.926007
v 2.656209 -0.863055 10.926007
v 2.792903 -0.000000 10.926007
v 2.656210 0.863055 12.107848
v 2.259507 1.641628 12.107848
v 1.641628 2.259507 12.107848
v 0.863055 2.656210 12.107848
v 0.000000 2.792904 12.107848
v -0.863055 2.656210 12.107848
v -1.641628 2.259507 12.107848
v -2.259507 1.641628 12.107848
v -2.656209 0.863055 12.107848
v -2.792904 0.000000 12.107848
v -2.656209 -0.863055 12.107848
v -2.259506 -1.641627 12.107848
v -1.641627 -2.259506 12.107848
v -0.863055 -2.656209 12.107848
v -0.000000 -2.792903 12.107848
v 0.863054 -2.656209 12.107848
v 1.641627 -2.259506 12.107848
v 2.259506 -1.641627 12.107848
v 2.656209 -0.863055 12.107848
v 2.792903 0.000000 12.107848
v 2.124968 0.690444 10.926007
v 2.234322 -0.000000 10.926007
v 2.124967 -0.690444 10.926007
v 1.807605 -1.313302 10.926007
v 1.313302 -1.807605 10.926007
v 0.690444 -2.124967 10.926007
v -0.000000 -2.234323 10.926007
v -0.690444 -2.124967 10.926007
v -1.313302 -1.807605 10.926007
v -1.807605 -1.313302 10.926007
v -2.124967 -0.690444 10.926007
v -2.234323 -0.000000 10.926007
v -2.124967 0.690444 10.926007
v -1.807605 1.313302 10.926007
v -1.313302 1.807605 10.926007
v -0.690444 2.124968 10.926007
v 0.000000 2.234324 10.926007
v 0.690444 2.124968 10.926007
v 1.313303 1.807606 10.926007
v 1.807606 1.313303 10.926007
v 2.124968 0.690444 12.107848
v 1.807606 1.313303 12.107848
v 1.313303 1.807606 12.107848
v 0.690444 2.124968 12.107848
v 0.000000 2.234324 12.107848
v -0.690444 2.124968 12.107848
v -1.313302 1.807605 12.107848
v -1.807605 1.313302 12.107848
v -2.124967 0.690444 12.107848
v -2.234323 0.000000 12.107848
v -2.124967 -0.690444 12.107848
v -1.807605 -1.313302 12.107848
v -1.313302 -1.807605 12.107848
v -0.690444 -2.124967 12.107848
v -0.000000 -2.234323 12.107848
v 0.690444 -2.124967 12.107848
v 1.313302 -1.807605 12.107848
v 1.807605 -1.313302 12.107848
v 2.124967 -0.690444 12.107848
v 2.234322 0.000000 12.107848
v -1.877724 -1.908002 11.992576
v 1.877724 -1.908002 11.992576
v -1.877724 -1.503039 11.859400
v 1.877724 -1.503039 11.859400
v -1.877724 -1.536793 11.756761
v 1.877724 -1.536793 11.756761
v -1.877724 -1.941756 11.889936
v 1.877724 -1.941756 11.889936
v -1.877724 1.517866 11.992576
v 1.877724 1.517866 11.992576
v -1.877724 1.922828 11.859400
v 1.877724 1.922828 11.859400
v -1.877724 1.889074 11.756761
v 1.877724 1.889074 11.756761
v -1.877724 1.484112 11.889936
v 1.877724 1.484112 11.889936
v -2.315002 0.363292 11.992576
v 2.315002 0.363292 11.992576
v -2.315002 0.768254 11.859400
v 2.315002 0.768254 11.859400
v -2.315002 0.734500 11.756761
v 2.315002 0.734500 11.756761
v -2.315002 0.329538 11.889936
v 2.315002 0.329538 11.889936
v -2.315002 -0.753428 11.992576
v 2.315002 -0.753428 11.992576
v -2.315002 -0.348465 11.859400
v 2.315002 -0.348465 11.859400
v -2.315002 -0.382219 11.756761
v 2.315002 -0.382219 11.756761
v -2.315002 -0.787182 11.889936
v 2.315002 -0.787182 11.889936
v -2.315002 0.931115 11.992576
v 2.315002 0.931115 11.992576
v -2.315002 1.336077 11.859400
v 2.315002 1.336077 11.859400
v -2.315002 1.302323 11.756761
v 2.315002 1.302323 11.756761
v -2.315002 0.897361 11.889936
v 2.315002 0.897361 11.889936
v -2.315002 -1.321251 11.992576
v 2.315002 -1.321251 11.992576
v -2.315002 -0.916288 11.859400
v 2.315002 -0.916288 11.859400
v -2.315002 -0.950043 11.756761
v 2.315002 -0.950043 11.756761
v -2.315002 -1.355005 11.889936
v 2.315002 -1.355005 11.889936
v -0.980589 -2.494752 11.992576
v 0.980589 -2.494752 11.992576
v -0.980589 -2.089790 11.859400
v 0.980589 -2.089790 11.859400
v -0.980589 -2.123544 11.756761
v 0.980589 -2.123544 11.756761
v -0.980589 -2.528507 11.889936
v 0.980589 -2.528507 11.889936
v -0.980589 2.123544 11.992576
v 0.980589 2.123544 11.992576
v -0.980589 2.528507 11.859400
v 0.980589 2.528507 11.859400
v -0.980589 2.494752 11.756761
v 0.980589 2.494752 11.756761
v -0.980589 2.089790 11.889936
v 0.980589 2.089790 11.889936
vt 0.807381 0.636393
vt 0.807381 0.699738
vt 0.711226 0.699738
vt 0.711226 0.636393
vt 0.807381 0.750009
vt 0.711226 0.750009
vt 0.807381 0.566175
vt 0.711226 0.566175
vt 0.807381 0.495956
vt 0.711226 0.495956
vt 0.807381 0.432611
vt 0.711226 0.432611
vt 0.807381 0.382340
vt 0.711226 0.382340
vt 0.609461 0.699738
vt 0.609461 0.636393
vt 0.705616 0.636393
vt 0.705616 0.699738
vt 0.609461 0.566175
vt 0.705616 0.566175
vt 0.609461 0.750009
vt 0.705616 0.750009
vt 0.609461 0.495956
vt 0.705616 0.495956
vt 0.609461 0.432611
vt 0.705616 0.432611
vt 0.609461 0.382340
vt 0.705616 0.382340
vt 0.297629 0.663347
vt 0.393784 0.663347
vt 0.393784 0.714023
vt 0.297629 0.714023
vt 0.297629 0.607172
vt 0.393784 0.607172
vt 0.393784 0.754240
vt 0.297629 0.754240
vt 0.297629 0.550997
vt 0.393784 0.550997
vt 0.297629 0.500321
vt 0.393784 0.500321
vt 0.297629 0.460105
vt 0.393784 0.460105
vt 0.292020 0.714023
vt 0.195865 0.714023
vt 0.195865 0.663347
vt 0.292020 0.663347
vt 0.292020 0.754240
vt 0.195865 0.754240
vt 0.195865 0.607172
vt 0.292020 0.607172
vt 0.195865 0.550997
vt 0.292020 0.550997
vt 0.195865 0.500321
vt 0.292020 0.500321
vt 0.195865 0.460105
vt 0.292020 0.460105
vt 0.502686 0.378691
vt 0.502686 0.001992
vt 0.511037 0.001992
vt 0.511037 0.378691
vt 0.556140 0.378691
vt 0.556140 0.001992
vt 0.564491 0.001992
vt 0.564491 0.378691
vt 0.190256 0.460105
vt 0.190256 0.523450
vt 0.094101 0.523450
vt 0.094101 0.460105
vt 0.190256 0.593668
vt 0.094101 0.593668
vt 0.190256 0.663887
vt 0.094101 0.663887
vt 0.190256 0.727232
vt 0.094101 0.727232
vt 0.001821 0.998008
vt 0.001821 0.934663
vt 0.097976 0.934663
vt 0.097976 0.998008
vt 0.001821 0.864444
vt 0.097976 0.864444
vt 0.001821 0.794226
vt 0.097976 0.794226
vt 0.001821 0.730881
vt 0.097976 0.730881
vt 0.105344 0.757889
vt 0.201499 0.757889
vt 0.201499 0.808565
vt 0.105344 0.808565
vt 0.201499 0.864740
vt 0.105344 0.864740
vt 0.201499 0.920915
vt 0.105344 0.920915
vt 0.201499 0.971591
vt 0.105344 0.971591
vt 0.304843 0.971591
vt 0.208688 0.971591
vt 0.208688 0.920915
vt 0.304843 0.920915
vt 0.208688 0.864740
vt 0.304843 0.864740
vt 0.208688 0.808565
vt 0.304843 0.808565
vt 0.208688 0.757889
vt 0.304843 0.757889
vt 0.556944 0.687885
vt 0.556944 0.382340
vt 0.565295 0.382340
vt 0.565295 0.687885
vt 0.504427 0.687885
vt 0.504427 0.382340
vt 0.512778 0.382340
vt 0.512778 0.687885
vt 0.451910 0.765650
vt 0.451910 0.460105
vt 0.460261 0.460105
vt 0.460261 0.765650
vt 0.399393 0.765650
vt 0.399393 0.460105
vt 0.407744 0.460105
vt 0.407744 0.765650
vt 0.609594 0.378691
vt 0.609594 0.001992
vt 0.617945 0.001992
vt 0.617945 0.378691
vt 0.663048 0.378691
vt 0.663048 0.001992
vt 0.671399 0.001992
vt 0.671399 0.378691
vt 0.716502 0.378691
vt 0.716502 0.001992
vt 0.724853 0.001992
vt 0.724853 0.378691
vt 0.769956 0.378691
vt 0.769956 0.001992
vt 0.778307 0.001992
vt 0.778307 0.378691
vt 0.823410 0.378691
vt 0.823410 0.001992
vt 0.831761 0.001992
vt 0.831761 0.378691
vt 0.876864 0.378691
vt 0.876864 0.001992
vt 0.885215 0.001992
vt 0.885215 0.378691
vt 0.865507 0.759039
vt 0.865507 0.382340
vt 0.873858 0.382340
vt 0.873858 0.759039
vt 0.812990 0.759039
vt 0.812990 0.382340
vt 0.821341 0.382340
vt 0.821341 0.759039
vt 0.351233 0.917451
vt 0.351233 0.757889
vt 0.359583 0.757889
vt 0.359583 0.917451
vt 0.404687 0.928861
vt 0.404687 0.769299
vt 0.413037 0.769299
vt 0.413037 0.928861
vt 0.458141 0.928861
vt 0.458141 0.769299
vt 0.466492 0.769299
vt 0.466492 0.928861
vt 0.511595 0.851096
vt 0.511595 0.691534
vt 0.519946 0.691534
vt 0.519946 0.851096
vt 0.463486 0.378691
vt 0.463486 0.001992
vt 0.496434 0.001992
vt 0.496434 0.378691
vt 0.516940 0.378691
vt 0.516940 0.001992
vt 0.549888 0.001992
vt 0.549888 0.378691
vt 0.445163 0.299442
vt 0.412887 0.362787
vt 0.376121 0.336075
vt 0.401941 0.285399
vt 0.362617 0.413058
vt 0.335904 0.376291
vt 0.456285 0.229224
vt 0.410838 0.229224
vt 0.299271 0.445334
vt 0.285228 0.402112
vt 0.445163 0.159005
vt 0.401941 0.173049
vt 0.229053 0.456456
vt 0.229053 0.411009
vt 0.412887 0.095660
vt 0.376120 0.122373
vt 0.158834 0.445334
vt 0.172878 0.402112
vt 0.362616 0.045389
vt 0.335904 0.082156
vt 0.095489 0.413058
vt 0.122202 0.376291
vt 0.299271 0.013114
vt 0.285228 0.056336
vt 0.045219 0.362787
vt 0.081985 0.336075
vt 0.229053 0.001992
vt 0.229053 0.047438
vt 0.012943 0.299442
vt 0.056165 0.285399
vt 0.158835 0.013114
vt 0.172878 0.056336
vt 0.001821 0.229224
vt 0.047268 0.229224
vt 0.095490 0.045389
vt 0.122202 0.082156
vt 0.012943 0.159005
vt 0.056165 0.173049
vt 0.045219 0.095660
vt 0.081985 0.122373
vt 0.570904 0.687885
vt 0.570904 0.382340
vt 0.603852 0.382340
vt 0.603852 0.687885
vt 0.518387 0.687885
vt 0.518387 0.382340
vt 0.551335 0.382340
vt 0.551335 0.687885
vt 0.465870 0.687885
vt 0.465870 0.382340
vt 0.498818 0.382340
vt 0.498818 0.687885
vt 0.413353 0.765650
vt 0.413353 0.460105
vt 0.446301 0.460105
vt 0.446301 0.765650
vt 0.570394 0.378691
vt 0.570394 0.001992
vt 0.603342 0.001992
vt 0.603342 0.378691
vt 0.623848 0.378691
vt 0.623848 0.001992
vt 0.656796 0.001992
vt 0.656796 0.378691
vt 0.677302 0.378691
vt 0.677302 0.001992
vt 0.710250 0.001992
vt 0.710250 0.378691
vt 0.730756 0.378691
vt 0.730756 0.001992
vt 0.763704 0.001992
vt 0.763704 0.378691
vt 0.784211 0.378691
vt 0.784211 0.001992
vt 0.817158 0.001992
vt 0.817158 0.378691
vt 0.837665 0.378691
vt 0.837665 0.001992
vt 0.870612 0.001992
vt 0.870612 0.378691
vt 0.879467 0.759039
vt 0.879467 0.382340
vt 0.912415 0.382340
vt 0.912415 0.759039
vt 0.826950 0.759039
vt 0.826950 0.382340
vt 0.859898 0.382340
vt 0.859898 0.759039
vt 0.312033 0.917451
vt 0.312033 0.757889
vt 0.344981 0.757889
vt 0.344981 0.917451
vt 0.365487 0.928861
vt 0.365487 0.769299
vt 0.398435 0.769299
vt 0.398435 0.928861
vt 0.418941 0.928861
vt 0.418941 0.769299
vt 0.451889 0.769299
vt 0.451889 0.928861
vt 0.472395 0.851097
vt 0.472395 0.691534
vt 0.505343 0.691534
vt 0.505343 0.851097
vn 0.000000 0.312401 0.949951
vn 0.000000 0.312401 0.949951
vn 0.000000 0.312401 0.949951
vn 0.000000 0.312401 0.949951
vn 0.000000 0.949950 -0.312403
vn 0.000000 0.949950 -0.312403
vn 0.000000 0.949950 -0.312403
vn 0.000000 0.949950 -0.312403
vn 0.000000 -0.312401 -0.949951
vn 0.000000 -0.312401 -0.949951
vn 0.000000 -0.312401 -0.949951
vn 0.000000 -0.312401 -0.949951
vn 0.000000 -0.949950 0.312403
vn 0.000000 -0.949950 0.312403
vn 0.000000 -0.949950 0.312403
vn 0.000000 -0.949950 0.312403
vn 0.951057 0.309016 0.000000
vn 0.809017 0.587785 0.000000
vn 0.809017 0.587785 0.000000
vn 0.951057 0.309016 0.000000
vn 0.587785 0.809017 0.000000
vn 0.587785 0.809017 0.000000
vn 0.309017 0.951057 0.000000
vn 0.309017 0.951057 0.000000
vn 0.000000 1.000000 0.000000
vn 0.000000 1.000000 0.000000
vn -0.309017 0.951057 0.000000
vn -0.309017 0.951057 0.000000
vn -0.587785 0.809017 0.000000
vn -0.587785 0.809017 0.000000
vn -0.809017 0.587785 0.000000
vn -0.809017 0.587785 0.000000
vn -0.951057 0.309017 0.000000
vn -0.951057 0.309017 0.000000
vn -1.000000 0.000000 0.000000
vn -1.000000 0.000000 0.000000
vn -0.951056 -0.309017 0.000000
vn -0.951056 -0.309017 0.000000
vn -0.809017 -0.587785 0.000000
vn -0.809017 -0.587785 0.000000
vn -0.587785 -0.809017 0.000000
vn -0.587785 -0.809017 0.000000
vn -0.309017 -0.951057 0.000000
vn -0.309017 -0.951057 0.000000
vn 0.000000 -1.000000 0.000000
vn 0.000000 -1.000000 0.000000
vn 0.309017 -0.951057 0.000000
vn 0.309017 -0.951057 0.000000
vn 0.587785 -0.809017 0.000000
vn 0.587785 -0.809017 0.000000
vn 0.809017 -0.587785 0.000000
vn 0.809017 -0.587785 0.000000
vn 0.951057 -0.309017 0.000000
vn 0.951057 -0.309017 0.000000
vn 1.000000 -0.000001 0.000000
vn 1.000000 -0.000001 0.000000
vn -0.000001 0.000000 1.000000
vn 0.000000 0.000000 1.000000
vn 0.000000 0.000000 1.000000
vn -0.000001 0.000000 1.000000
vn 0.000000 0.000000 1.000000
vn 0.000000 0.000000 1.000000
vn -0.000001 0.000000 1.000000
vn -0.000001 0.000000 1.000000
vn -0.000001 0.000000 1.000000
vn -0.000001 0.000000 1.000000
vn 0.000001 0.000000 1.000000
vn 0.000001 0.000000 1.000000
vn 0.000001 0.000000 1.000000
vn 0.000001 0.000000 1.000000
vn 0.000000 0.000000 1.000000
vn 0.000000 0.000000 1.000000
vn 0.000001 0.000000 1.000000
vn 0.000001 0.000000 1.000000
vn 0.000002 0.000000 1.000000
vn 0.000002 0.000000 1.000000
vn 0.000001 0.000000 1.000000
vn 0.000001 0.000000 1.000000
vn -0.000000 0.000000 1.000000
vn -0.000000 0.000000 1.000000
vn 0.000000 0.000000 1.000000
vn 0.000000 0.000000 1.000000
vn 0.000001 0.000000 1.000000
vn 0.000001 0.000000 1.000000
vn 0.000001 0.000000 1.000000
vn 0.000001 0.000000 1.000000
vn 0.000001 0.000000 1.000000
vn 0.000001 0.000000 1.000000
vn 0.000000 0.000000 1.000000
vn 0.000000 0.000000 1.000000
vn 0.000000 0.000000 1.000000
vn 0.000000 0.000000 1.000000
vn 0.000001 0.000000 1.000000
vn 0.000001 0.000000 1.000000
vn -0.000001 0.000000 1.000000
vn -0.000001 0.000000 1.000000
vn -0.891006 -0.453991 0.000000
vn -0.891006 -0.453991 0.000000
vn -0.891006 -0.453991 0.000000
vn -0.891006 -0.453991 0.000000
vn -0.707107 -0.707107 0.000000
vn -0.707107 -0.707107 0.000000
vn -0.707107 -0.707107 0.000000
vn -0.707107 -0.707107 0.000000
vn -0.453990 -0.891007 0.000000
vn -0.453990 -0.891007 0.000000
vn -0.453990 -0.891007 0.000000
vn -0.453990 -0.891007 0.000000
vn -0.156435 -0.987688 0.000000
vn -0.156435 -0.987688 0.000000
vn -0.156435 -0.987688 0.000000
vn -0.156435 -0.987688 0.000000
vn 0.156435 -0.987688 0.000000
vn 0.156435 -0.987688 0.000000
vn 0.156435 -0.987688 0.000000
vn 0.156435 -0.987688 0.000000
vn 0.453991 -0.891006 0.000000
vn 0.453991 -0.891006 0.000000
vn 0.453991 -0.891006 0.000000
vn 0.453991 -0.891006 0.000000
vn 0.707107 -0.707107 0.000000
vn 0.707107 -0.707107 0.000000
vn 0.707107 -0.707107 0.000000
vn 0.707107 -0.707107 0.000000
vn 0.891007 -0.453990 0.000000
vn 0.891007 -0.453990 0.000000
vn 0.891007 -0.453990 0.000000
vn 0.891007 -0.453990 0.000000
vn 0.987688 -0.156434 0.000000
vn 0.987688 -0.156434 0.000000
vn 0.987688 -0.156434 0.000000
vn 0.987688 -0.156434 0.000000
vn 0.987688 0.156434 0.000000
vn 0.987688 0.156434 0.000000
vn 0.987688 0.156434 0.000000
vn 0.987688 0.156434 0.000000
vn 0.891007 0.453991 0.000000
vn 0.891007 0.453991 0.000000
vn 0.891007 0.453991 0.000000
vn 0.891007 0.453991 0.000000
vn 0.707106 0.707107 0.000000
vn 0.707106 0.707107 0.000000
vn 0.707106 0.707107 0.000000
vn 0.707106 0.707107 0.000000
vn 0.453991 0.891006 0.000000
vn 0.453991 0.891006 0.000000
vn 0.453991 0.891006 0.000000
vn 0.453991 0.891006 0.000000
vn 0.156434 0.987688 0.000000
vn 0.156434 0.987688 0.000000
vn 0.156434 0.987688 0.000000
vn 0.156434 0.987688 0.000000
vn -0.156435 0.987688 0.000000
vn -0.156435 0.987688 0.000000
vn -0.156435 0.987688 0.000000
vn -0.156435 0.987688 0.000000
vn -0.453990 0.891007 0.000000
vn -0.453990 0.891007 0.000000
vn -0.453990 0.891007 0.000000
vn -0.453990 0.891007 0.000000
vn -0.707106 0.707107 0.000000
vn -0.707106 0.707107 0.000000
vn -0.707106 0.707107 0.000000
vn -0.707106 0.707107 0.000000
vn -0.891007 0.453990 0.000000
vn -0.891007 0.453990 0.000000
vn -0.891007 0.453990 0.000000
vn -0.891007 0.453990 0.000000
vn -0.987688 0.156434 0.000000
vn -0.987688 0.156434 0.000000
vn -0.987688 0.156434 0.000000
vn -0.987688 0.156434 0.000000
vn -0.987689 -0.156432 0.000000
vn -0.987689 -0.156432 0.000000
vn -0.987689 -0.156432 0.000000
vn -0.987689 -0.156432 0.000000
vn 0.000000 0.312400 0.949951
vn 0.000000 0.312400 0.949951
vn 0.000000 0.312400 0.949951
vn 0.000000 0.312400 0.949951
vn 0.000000 0.949950 -0.312404
vn 0.000000 0.949950 -0.312404
vn 0.000000 0.949950 -0.312404
vn 0.000000 0.949950 -0.312404
vn 0.000000 -0.312401 -0.949951
vn 0.000000 -0.312401 -0.949951
vn 0.000000 -0.312401 -0.949951
vn 0.000000 -0.312401 -0.949951
vn 0.000000 -0.949950 0.312402
vn 0.000000 -0.949950 0.312402
vn 0.000000 -0.949950 0.312402
vn 0.000000 -0.949950 0.312402
vn 0.000000 0.312401 0.949951
vn 0.000000 0.312401 0.949951
vn 0.000000 0.312401 0.949951
vn 0.000000 0.312401 0.949951
vn 0.000000 0.949950 -0.312401
vn 0.000000 0.949950 -0.312401
vn 0.000000 0.949950 -0.312401
vn 0.000000 0.949950 -0.312401
vn 0.000000 -0.312401 -0.949951
vn 0.000000 -0.312401 -0.949951
vn 0.000000 -0.312401 -0.949951
vn 0.000000 -0.312401 -0.949951
vn 0.000000 -0.949950 0.312402
vn 0.000000 -0.949950 0.312402
vn 0.000000 -0.949950 0.312402
vn 0.000000 -0.949950 0.312402
vn 0.000000 0.312401 0.949950
vn 0.000000 0.312401 0.949950
vn 0.000000 0.312401 0.949950
vn 0.000000 0.312401 0.949950
vn 0.000000 0.949950 -0.312402
vn 0.000000 0.949950 -0.312402
vn 0.000000 0.949950 -0.312402
vn 0.000000 0.949950 -0.312402
vn 0.000000 -0.312401 -0.949951
vn 0.000000 -0.312401 -0.949951
vn 0.000000 -0.312401 -0.949951
vn 0.000000 -0.312401 -0.949951
vn 0.000000 -0.949950 0.312402
vn 0.000000 -0.949950 0.312402
vn 0.000000 -0.949950 0.312402
vn 0.000000 -0.949950 0.312402
vn 0.000000 0.312401 0.949951
vn 0.000000 0.312401 0.949951
vn 0.000000 0.312401 0.949951
vn 0.000000 0.312401 0.949951
vn 0.000000 0.949950 -0.312402
vn 0.000000 0.949950 -0.312402
vn 0.000000 0.949950 -0.312402
vn 0.000000 0.949950 -0.312402
vn 0.000000 -0.312401 -0.949951
vn 0.000000 -0.312401 -0.949951
vn 0.000000 -0.312401 -0.949951
vn 0.000000 -0.312401 -0.949951
vn 0.000000 -0.949950 0.312402
vn 0.000000 -0.949950 0.312402
vn 0.000000 -0.949950 0.312402
vn 0.000000 -0.949950 0.312402
vn 0.000000 0.312401 0.949950
vn 0.000000 0.312401 0.949950
vn 0.000000 0.312401 0.949950
vn 0.000000 0.312401 0.949950
vn 0.000000 0.949950 -0.312403
vn 0.000000 0.949950 -0.312403
vn 0.000000 0.949950 -0.312403
vn 0.000000 0.949950 -0.312403
vn 0.000000 -0.312401 -0.949950
vn 0.000000 -0.312401 -0.949950
vn 0.000000 -0.312401 -0.949950
vn 0.000000 -0.312401 -0.949950
vn 0.000000 -0.949950 0.312403
vn 0.000000 -0.949950 0.312403
vn 0.000000 -0.949950 0.312403
vn 0.000000 -0.949950 0.312403
vn 0.000000 0.312400 0.949950
vn 0.000000 0.312400 0.949950
vn 0.000000 0.312400 0.949950
vn 0.000000 0.312400 0.949950
vn 0.000000 0.949950 -0.312403
vn 0.000000 0.949950 -0.312403
vn 0.000000 0.949950 -0.312403
vn 0.000000 0.949950 -0.312403
vn 0.000000 -0.312400 -0.949950
vn 0.000000 -0.312400 -0.949950
vn 0.000000 -0.312400 -0.949950
vn 0.000000 -0.312400 -0.949950
vn 0.000000 -0.949950 0.312403
vn 0.000000 -0.949950 0.312403
vn 0.000000 -0.949950 0.312403
vn 0.000000 -0.949950 0.312403
vn 0.000000 0.312401 0.949950
vn 0.000000 0.312401 0.949950
vn 0.000000 0.312401 0.949950
vn 0.000000 0.312401 0.949950
vn 0.000000 0.949950 -0.312402
vn 0.000000 0.949950 -0.312402
vn 0.000000 0.949950 -0.312402
vn 0.000000 0.949950 -0.312402
vn 0.000000 -0.312401 -0.949950
vn 0.000000 -0.312401 -0.949950
vn 0.000000 -0.312401 -0.949950
vn 0.000000 -0.312401 -0.949950
vn 0.000000 -0.949950 0.312402
vn 0.000000 -0.949950 0.312402
vn 0.000000 -0.949950 0.312402
vn 0.000000 -0.949950 0.312402
vn 0.000000 0.312401 0.949950
vn 0.000000 0.312401 0.949950
vn 0.000000 0.312401 0.949950
vn 0.000000 0.312401 0.949950
vn 0.000000 0.949950 -0.312402
vn 0.000000 0.949950 -0.312402
vn 0.000000 0.949950 -0.312402
vn 0.000000 0.949950 -0.312402
vn 0.000000 -0.312401 -0.949950
vn 0.000000 -0.312401 -0.949950
vn 0.000000 -0.312401 -0.949950
vn 0.000000 -0.312401 -0.949950
vn 0.000000 -0.949950 0.312402
vn 0.000000 -0.949950 0.312402
vn 0.000000 -0.949950 0.312402
vn 0.000000 -0.949950 0.312402
s off
g pCube11
usemtl initialShadingGroup
f 1/169/1 2/170/2 4/171/3 3/172/4
f 3/57/5 4/58/6 6/59/7 5/60/8
f 5/173/9 6/174/10 8/175/11 7/176/12
f 7/61/13 8/62/14 2/63/15 1/64/16
s 1
f 9/1/17 10/2/18 30/3/19 29/4/20
f 10/2/18 11/5/21 31/6/22 30/3/19
f 11/65/21 12/66/23 32/67/24 31/68/22
f 12/66/23 13/69/25 33/70/26 32/67/24
f 13/69/25 14/71/27 34/72/28 33/70/26
f 14/71/27 15/73/29 35/74/30 34/72/28
f 15/21/29 16/15/31 36/18/32 35/22/30
f 16/15/31 17/16/33 37/17/34 36/18/32
f 17/16/33 18/19/35 38/20/36 37/17/34
f 18/19/35 19/23/37 39/24/38 38/20/36
f 19/23/37 20/25/39 40/26/40 39/24/38
f 20/25/39 21/27/41 41/28/42 40/26/40
f 21/75/41 22/76/43 42/77/44 41/78/42
f 22/76/43 23/79/45 43/80/46 42/77/44
f 23/79/45 24/81/47 44/82/48 43/80/46
f 24/81/47 25/83/49 45/84/50 44/82/48
f 25/13/49 26/11/51 46/12/52 45/14/50
f 26/11/51 27/9/53 47/10/54 46/12/52
f 27/9/53 28/7/55 48/8/56 47/10/54
f 28/7/55 9/1/17 29/4/20 48/8/56
s 2
f 29/177/57 30/178/58 70/179/59 69/180/60
f 30/178/58 31/181/61 71/182/62 70/179/59
f 31/181/61 32/185/63 72/186/64 71/182/62
f 32/185/63 33/189/65 73/190/66 72/186/64
f 33/189/65 34/193/67 74/194/68 73/190/66
f 34/193/67 35/197/69 75/198/70 74/194/68
f 35/197/69 36/201/71 76/202/72 75/198/70
f 36/201/71 37/205/73 77/206/74 76/202/72
f 37/205/73 38/209/75 78/210/76 77/206/74
f 38/209/75 39/213/77 79/214/78 78/210/76
f 39/213/77 40/215/79 80/216/80 79/214/78
f 40/215/79 41/211/81 81/212/82 80/216/80
f 41/211/81 42/207/83 82/208/84 81/212/82
f 42/207/83 43/203/85 83/204/86 82/208/84
f 43/203/85 44/199/87 84/200/88 83/204/86
f 44/199/87 45/195/89 85/196/90 84/200/88
f 45/195/89 46/191/91 86/192/92 85/196/90
f 46/191/91 47/187/93 87/188/94 86/192/92
f 47/187/93 48/183/95 88/184/96 87/188/94
f 48/183/95 29/177/57 69/180/60 88/184/96
s off
f 49/29/97 69/30/98 70/31/99 68/32/100
f 68/32/101 70/31/102 71/35/103 67/36/104
f 67/85/105 71/86/106 72/87/107 66/88/108
f 66/88/109 72/87/110 73/89/111 65/90/112
f 65/90/113 73/89/114 74/91/115 64/92/116
f 64/92/117 74/91/118 75/93/119 63/94/120
f 63/47/121 75/48/122 76/44/123 62/43/124
f 62/43/125 76/44/126 77/45/127 61/46/128
f 61/46/129 77/45/130 78/49/131 60/50/132
f 60/50/133 78/49/134 79/51/135 59/52/136
f 59/52/137 79/51/138 80/53/139 58/54/140
f 58/54/141 80/53/142 81/55/143 57/56/144
f 57/95/145 81/96/146 82/97/147 56/98/148
f 56/98/149 82/97/150 83/99/151 55/100/152
f 55/100/153 83/99/154 84/101/155 54/102/156
f 54/102/157 84/101/158 85/103/159 53/104/160
f 53/41/161 85/42/162 86/40/163 52/39/164
f 52/39/165 86/40/166 87/38/167 51/37/168
f 51/37/169 87/38/170 88/34/171 50/33/172
f 50/33/173 88/34/174 69/30/175 49/29/176
f 89/217/177 90/218/178 92/219/179 91/220/180
f 91/105/181 92/106/182 94/107/183 93/108/184
f 93/221/185 94/222/186 96/223/187 95/224/188
f 95/109/189 96/110/190 90/111/191 89/112/192
f 97/225/193 98/226/194 100/227/195 99/228/196
f 99/113/197 100/114/198 102/115/199 101/116/200
f 101/229/201 102/230/202 104/231/203 103/232/204
f 103/117/205 104/118/206 98/119/207 97/120/208
f 105/233/209 106/234/210 108/235/211 107/236/212
f 107/121/213 108/122/214 110/123/215 109/124/216
f 109/237/217 110/238/218 112/239/219 111/240/220
f 111/125/221 112/126/222 106/127/223 105/128/224
f 113/241/225 114/242/226 116/243/227 115/244/228
f 115/129/229 116/130/230 118/131/231 117/132/232
f 117/245/233 118/246/234 120/247/235 119/248/236
f 119/133/237 120/134/238 114/135/239 113/136/240
f 121/249/241 122/250/242 124/251/243 123/252/244
f 123/137/245 124/138/246 126/139/247 125/140/248
f 125/253/249 126/254/250 128/255/251 127/256/252
f 127/141/253 128/142/254 122/143/255 121/144/256
f 129/257/257 130/258/258 132/259/259 131/260/260
f 131/145/261 132/146/262 134/147/263 133/148/264
f 133/261/265 134/262/266 136/263/267 135/264/268
f 135/149/269 136/150/270 130/151/271 129/152/272
f 137/265/273 138/266/274 140/267/275 139/268/276
f 139/153/277 140/154/278 142/155/279 141/156/280
f 141/269/281 142/270/282 144/271/283 143/272/284
f 143/157/285 144/158/286 138/159/287 137/160/288
f 145/273/289 146/274/290 148/275/291 147/276/292
f 147/161/293 148/162/294 150/163/295 149/164/296
f 149/277/297 150/278/298 152/279/299 151/280/300
f 151/165/301 152/166/302 146/167/303 145/168/304
